# xmcd CD database file
#
# Track frame offsets:
#	150
#	27620
#	54407
#	91020
#	121695
#	152552
#
# Disc length: 2375 seconds
#
# Revision: 1
# Processed by: cddbd v1.5.2PL0 Copyright (c) Steve Scherf et al.
# Submitted via: CDex 1.70beta3
#
DISCID=3c094506
DTITLE=Dizzy Reece - Star Bright
DYEAR=1959
DGENRE=Jazz
TTITLE0=The Rake
TTITLE1=I'll Close My Eyes
TTITLE2=Groovesville
TTITLE3=The Rebound
TTITLE4=I Wished On The Moon
TTITLE5=A Variation On Monk
EXTD=YEAR: 1959
EXTT0=
EXTT1=
EXTT2=
EXTT3=
EXTT4=
EXTT5=
PLAYORDER=
